<svg width="13" height="14" viewBox="0 0 13 14" fill="none" xmlns="http://www.w3.org/2000/svg">
<path d="M6.5 7C8.41187 7 9.96667 5.43025 9.96667 3.5C9.96667 1.56975 8.41187 0 6.5 0C4.58813 0 3.03333 1.56975 3.03333 3.5C3.03333 5.43025 4.58813 7 6.5 7ZM6.5 1.75C7.45593 1.75 8.23333 2.53487 8.23333 3.5C8.23333 4.46513 7.45593 5.25 6.5 5.25C5.54407 5.25 4.76667 4.46513 4.76667 3.5C4.76667 2.53487 5.54407 1.75 6.5 1.75ZM7.8 7.875H5.2C2.3322 7.875 0 10.2296 0 13.125V14H1.73333V13.125C1.73333 11.1947 3.28813 9.625 5.2 9.625H7.8C9.71187 9.625 11.2667 11.1947 11.2667 13.125V14H13V13.125C13 10.2296 10.6678 7.875 7.8 7.875Z" fill="#AEB1BB"/>
</svg>
